<mxfile host="app.diagrams.net" modified="2023-10-25T14:54:17.098Z" agent="Mozilla/5.0 (Windows NT 10.0; Win64; x64) AppleWebKit/537.36 (KHTML, like Gecko) Chrome/118.0.0.0 Safari/537.36" etag="WedOFHih7bzGAkCzV1lp" version="22.0.8" type="google">
  <diagram name="Page-1" id="QIrMMgfdcY7iz1HS1KgB">
    <mxGraphModel grid="1" page="1" gridSize="10" guides="1" tooltips="1" connect="1" arrows="1" fold="1" pageScale="1" pageWidth="1100" pageHeight="850" math="0" shadow="0">
      <root>
        <object label="" FaceAddrW-1="5" VectAddrW-1="4" id="0">
          <mxCell />
        </object>
        <mxCell id="1" parent="0" />
        <mxCell id="wpC8kwuqwyjWKxIyAizM-50" value="" style="rounded=0;whiteSpace=wrap;html=1;" vertex="1" parent="1">
          <mxGeometry x="140" y="40" width="500" height="580" as="geometry" />
        </mxCell>
        <object label="" placeholders="1" id="Gl6bT_jSXnSH4bZ09Ikh-1">
          <mxCell style="fontStyle=1;align=center;verticalAlign=top;childLayout=stackLayout;horizontal=1;horizontalStack=0;resizeParent=1;resizeParentMax=0;resizeLast=0;marginBottom=0;" vertex="1" parent="1">
            <mxGeometry x="160" y="166" width="140" height="416" as="geometry" />
          </mxCell>
        </object>
        <mxCell id="Gl6bT_jSXnSH4bZ09Ikh-2" value="&lt;b&gt;&lt;font style=&quot;font-size: 14px;&quot;&gt;LoadVectorFSM&lt;/font&gt;&lt;/b&gt;" style="html=1;align=left;spacingLeft=4;verticalAlign=top;strokeColor=none;fillColor=none;whiteSpace=wrap;" vertex="1" parent="Gl6bT_jSXnSH4bZ09Ikh-1">
          <mxGeometry width="140" height="40" as="geometry" />
        </mxCell>
        <mxCell id="Gl6bT_jSXnSH4bZ09Ikh-3" value="" style="shape=module;jettyWidth=10;jettyHeight=4;" vertex="1" parent="Gl6bT_jSXnSH4bZ09Ikh-2">
          <mxGeometry x="1" width="16" height="20" relative="1" as="geometry">
            <mxPoint x="-25" y="9" as="offset" />
          </mxGeometry>
        </mxCell>
        <mxCell id="Gl6bT_jSXnSH4bZ09Ikh-4" value="" style="line;strokeWidth=1;fillColor=none;align=left;verticalAlign=middle;spacingTop=-1;spacingLeft=3;spacingRight=3;rotatable=0;labelPosition=right;points=[];portConstraint=eastwest;" vertex="1" parent="Gl6bT_jSXnSH4bZ09Ikh-1">
          <mxGeometry y="40" width="140" height="8" as="geometry" />
        </mxCell>
        <mxCell id="Gl6bT_jSXnSH4bZ09Ikh-5" value="Input&lt;br&gt;" style="html=1;align=center;spacingLeft=4;verticalAlign=top;strokeColor=none;fillColor=none;whiteSpace=wrap;" vertex="1" parent="Gl6bT_jSXnSH4bZ09Ikh-1">
          <mxGeometry y="48" width="140" height="25" as="geometry" />
        </mxCell>
        <mxCell id="wpC8kwuqwyjWKxIyAizM-46" style="edgeStyle=orthogonalEdgeStyle;rounded=0;orthogonalLoop=1;jettySize=auto;html=1;exitX=0;exitY=0.5;exitDx=0;exitDy=0;startArrow=classic;startFill=1;endArrow=none;endFill=0;" edge="1" parent="Gl6bT_jSXnSH4bZ09Ikh-1" source="wpC8kwuqwyjWKxIyAizM-44">
          <mxGeometry relative="1" as="geometry">
            <mxPoint x="-120" y="86" as="targetPoint" />
          </mxGeometry>
        </mxCell>
        <object label="num_faces (integer)" placeholders="1" id="wpC8kwuqwyjWKxIyAizM-44">
          <mxCell style="html=1;align=left;spacingLeft=4;verticalAlign=top;strokeColor=none;fillColor=none;whiteSpace=wrap;" vertex="1" parent="Gl6bT_jSXnSH4bZ09Ikh-1">
            <mxGeometry y="73" width="140" height="25" as="geometry" />
          </mxCell>
        </object>
        <mxCell id="wpC8kwuqwyjWKxIyAizM-47" style="edgeStyle=orthogonalEdgeStyle;rounded=0;orthogonalLoop=1;jettySize=auto;html=1;exitX=0;exitY=0.5;exitDx=0;exitDy=0;startArrow=classic;startFill=1;endArrow=none;endFill=0;" edge="1" parent="Gl6bT_jSXnSH4bZ09Ikh-1" source="Gl6bT_jSXnSH4bZ09Ikh-6">
          <mxGeometry relative="1" as="geometry">
            <mxPoint x="-120" y="111" as="targetPoint" />
          </mxGeometry>
        </mxCell>
        <object label="go" placeholders="1" id="Gl6bT_jSXnSH4bZ09Ikh-6">
          <mxCell style="html=1;align=left;spacingLeft=4;verticalAlign=top;strokeColor=none;fillColor=none;whiteSpace=wrap;" vertex="1" parent="Gl6bT_jSXnSH4bZ09Ikh-1">
            <mxGeometry y="98" width="140" height="25" as="geometry" />
          </mxCell>
        </object>
        <mxCell id="wpC8kwuqwyjWKxIyAizM-48" style="edgeStyle=orthogonalEdgeStyle;rounded=0;orthogonalLoop=1;jettySize=auto;html=1;exitX=0;exitY=0.5;exitDx=0;exitDy=0;startArrow=classic;startFill=1;endArrow=none;endFill=0;" edge="1" parent="Gl6bT_jSXnSH4bZ09Ikh-1" source="wpC8kwuqwyjWKxIyAizM-43">
          <mxGeometry relative="1" as="geometry">
            <mxPoint x="-120" y="136" as="targetPoint" />
          </mxGeometry>
        </mxCell>
        <object label="gonext" placeholders="1" id="wpC8kwuqwyjWKxIyAizM-43">
          <mxCell style="html=1;align=left;spacingLeft=4;verticalAlign=top;strokeColor=none;fillColor=none;whiteSpace=wrap;" vertex="1" parent="Gl6bT_jSXnSH4bZ09Ikh-1">
            <mxGeometry y="123" width="140" height="25" as="geometry" />
          </mxCell>
        </object>
        <mxCell id="Gl6bT_jSXnSH4bZ09Ikh-7" value="clk/clr" style="html=1;align=left;spacingLeft=4;verticalAlign=top;strokeColor=none;fillColor=none;whiteSpace=wrap;" vertex="1" parent="Gl6bT_jSXnSH4bZ09Ikh-1">
          <mxGeometry y="148" width="140" height="25" as="geometry" />
        </mxCell>
        <mxCell id="Gl6bT_jSXnSH4bZ09Ikh-8" value="" style="line;strokeWidth=1;fillColor=none;align=left;verticalAlign=middle;spacingTop=-1;spacingLeft=3;spacingRight=3;rotatable=0;labelPosition=right;points=[];portConstraint=eastwest;" vertex="1" parent="Gl6bT_jSXnSH4bZ09Ikh-1">
          <mxGeometry y="173" width="140" height="8" as="geometry" />
        </mxCell>
        <mxCell id="Gl6bT_jSXnSH4bZ09Ikh-9" value="Output&lt;br&gt;" style="html=1;align=center;spacingLeft=4;verticalAlign=top;strokeColor=none;fillColor=none;whiteSpace=wrap;" vertex="1" parent="Gl6bT_jSXnSH4bZ09Ikh-1">
          <mxGeometry y="181" width="140" height="25" as="geometry" />
        </mxCell>
        <mxCell id="Gl6bT_jSXnSH4bZ09Ikh-14" style="edgeStyle=orthogonalEdgeStyle;rounded=0;orthogonalLoop=1;jettySize=auto;html=1;exitX=1;exitY=0.5;exitDx=0;exitDy=0;" edge="1" parent="Gl6bT_jSXnSH4bZ09Ikh-1" source="Gl6bT_jSXnSH4bZ09Ikh-10">
          <mxGeometry relative="1" as="geometry">
            <mxPoint x="600" y="341" as="targetPoint" />
          </mxGeometry>
        </mxCell>
        <mxCell id="wpC8kwuqwyjWKxIyAizM-1" value="incVectReg" style="html=1;align=right;spacingLeft=4;verticalAlign=top;strokeColor=none;fillColor=none;whiteSpace=wrap;" vertex="1" parent="Gl6bT_jSXnSH4bZ09Ikh-1">
          <mxGeometry y="206" width="140" height="30" as="geometry" />
        </mxCell>
        <mxCell id="wpC8kwuqwyjWKxIyAizM-2" value="ldVectReg" style="html=1;align=right;spacingLeft=4;verticalAlign=top;strokeColor=none;fillColor=none;whiteSpace=wrap;" vertex="1" parent="Gl6bT_jSXnSH4bZ09Ikh-1">
          <mxGeometry y="236" width="140" height="30" as="geometry" />
        </mxCell>
        <mxCell id="wpC8kwuqwyjWKxIyAizM-5" value="incFaceReg" style="html=1;align=right;spacingLeft=4;verticalAlign=top;strokeColor=none;fillColor=none;whiteSpace=wrap;" vertex="1" parent="Gl6bT_jSXnSH4bZ09Ikh-1">
          <mxGeometry y="266" width="140" height="30" as="geometry" />
        </mxCell>
        <mxCell id="wpC8kwuqwyjWKxIyAizM-6" value="ldFaceReg" style="html=1;align=right;spacingLeft=4;verticalAlign=top;strokeColor=none;fillColor=none;whiteSpace=wrap;" vertex="1" parent="Gl6bT_jSXnSH4bZ09Ikh-1">
          <mxGeometry y="296" width="140" height="30" as="geometry" />
        </mxCell>
        <mxCell id="Gl6bT_jSXnSH4bZ09Ikh-10" value="load(8:0)" style="html=1;align=right;spacingLeft=4;verticalAlign=top;strokeColor=none;fillColor=none;whiteSpace=wrap;" vertex="1" parent="Gl6bT_jSXnSH4bZ09Ikh-1">
          <mxGeometry y="326" width="140" height="30" as="geometry" />
        </mxCell>
        <mxCell id="wpC8kwuqwyjWKxIyAizM-52" style="edgeStyle=orthogonalEdgeStyle;rounded=0;orthogonalLoop=1;jettySize=auto;html=1;exitX=1;exitY=0.5;exitDx=0;exitDy=0;" edge="1" parent="Gl6bT_jSXnSH4bZ09Ikh-1" source="wpC8kwuqwyjWKxIyAizM-51">
          <mxGeometry relative="1" as="geometry">
            <mxPoint x="600" y="371" as="targetPoint" />
          </mxGeometry>
        </mxCell>
        <mxCell id="wpC8kwuqwyjWKxIyAizM-51" value="ready" style="html=1;align=right;spacingLeft=4;verticalAlign=top;strokeColor=none;fillColor=none;whiteSpace=wrap;" vertex="1" parent="Gl6bT_jSXnSH4bZ09Ikh-1">
          <mxGeometry y="356" width="140" height="30" as="geometry" />
        </mxCell>
        <mxCell id="rNoVnRX11G7WzDgY3-d0-25" style="edgeStyle=orthogonalEdgeStyle;rounded=0;orthogonalLoop=1;jettySize=auto;html=1;exitX=1;exitY=0.5;exitDx=0;exitDy=0;" edge="1" parent="Gl6bT_jSXnSH4bZ09Ikh-1" source="rNoVnRX11G7WzDgY3-d0-24">
          <mxGeometry relative="1" as="geometry">
            <mxPoint x="600" y="401" as="targetPoint" />
          </mxGeometry>
        </mxCell>
        <mxCell id="rNoVnRX11G7WzDgY3-d0-24" value="readynext" style="html=1;align=right;spacingLeft=4;verticalAlign=top;strokeColor=none;fillColor=none;whiteSpace=wrap;" vertex="1" parent="Gl6bT_jSXnSH4bZ09Ikh-1">
          <mxGeometry y="386" width="140" height="30" as="geometry" />
        </mxCell>
        <mxCell id="Gl6bT_jSXnSH4bZ09Ikh-12" value="&lt;b&gt;&lt;font style=&quot;font-size: 18px;&quot;&gt;LoadVector.vhd&lt;/font&gt;&lt;/b&gt;" style="text;html=1;strokeColor=none;fillColor=none;align=center;verticalAlign=middle;whiteSpace=wrap;rounded=0;" vertex="1" parent="1">
          <mxGeometry x="187" y="46" width="60" height="30" as="geometry" />
        </mxCell>
        <mxCell id="wpC8kwuqwyjWKxIyAizM-27" style="edgeStyle=orthogonalEdgeStyle;rounded=0;orthogonalLoop=1;jettySize=auto;html=1;exitX=1;exitY=0.5;exitDx=0;exitDy=0;entryX=0;entryY=0.5;entryDx=0;entryDy=0;" edge="1" parent="1" source="wpC8kwuqwyjWKxIyAizM-5" target="Gl6bT_jSXnSH4bZ09Ikh-21">
          <mxGeometry relative="1" as="geometry" />
        </mxCell>
        <mxCell id="wpC8kwuqwyjWKxIyAizM-28" style="edgeStyle=orthogonalEdgeStyle;rounded=0;orthogonalLoop=1;jettySize=auto;html=1;exitX=1;exitY=0.5;exitDx=0;exitDy=0;entryX=0;entryY=0.5;entryDx=0;entryDy=0;" edge="1" parent="1" source="wpC8kwuqwyjWKxIyAizM-6" target="wpC8kwuqwyjWKxIyAizM-7">
          <mxGeometry relative="1" as="geometry">
            <Array as="points">
              <mxPoint x="300" y="476" />
              <mxPoint x="440" y="476" />
              <mxPoint x="440" y="360" />
            </Array>
          </mxGeometry>
        </mxCell>
        <mxCell id="wpC8kwuqwyjWKxIyAizM-29" value="" style="group" connectable="0" vertex="1" parent="1">
          <mxGeometry x="530" y="56" width="182" height="160" as="geometry" />
        </mxCell>
        <object label="addrVect(%VectAddrW-1%:0)" placeholders="1" id="Gl6bT_jSXnSH4bZ09Ikh-26">
          <mxCell style="text;html=1;strokeColor=none;fillColor=none;align=center;verticalAlign=middle;whiteSpace=wrap;rounded=0;" vertex="1" parent="wpC8kwuqwyjWKxIyAizM-29">
            <mxGeometry x="122" y="47" width="60" height="30" as="geometry" />
          </mxCell>
        </object>
        <mxCell id="wpC8kwuqwyjWKxIyAizM-18" value="&lt;b&gt;CountRegister:&lt;/b&gt;&lt;br&gt;VectAddrReg" style="swimlane;fontStyle=0;childLayout=stackLayout;horizontal=1;startSize=30;fillColor=none;horizontalStack=0;resizeParent=1;resizeParentMax=0;resizeLast=0;collapsible=1;marginBottom=0;whiteSpace=wrap;html=1;opacity=90;swimlaneFillColor=none;fillStyle=auto;direction=east;rounded=0;swimlaneLine=1;glass=0;shadow=0;dropTarget=1;" vertex="1" parent="wpC8kwuqwyjWKxIyAizM-29">
          <mxGeometry width="90" height="160" as="geometry" />
        </mxCell>
        <mxCell id="wpC8kwuqwyjWKxIyAizM-19" style="edgeStyle=orthogonalEdgeStyle;rounded=0;orthogonalLoop=1;jettySize=auto;html=1;exitX=1;exitY=0.5;exitDx=0;exitDy=0;" edge="1" parent="wpC8kwuqwyjWKxIyAizM-18" source="wpC8kwuqwyjWKxIyAizM-21">
          <mxGeometry relative="1" as="geometry">
            <mxPoint x="230" y="69" as="targetPoint" />
          </mxGeometry>
        </mxCell>
        <object label="d(%VectAddrW-1%:0)" placeholders="1" id="wpC8kwuqwyjWKxIyAizM-20">
          <mxCell style="text;strokeColor=none;fillColor=none;align=left;verticalAlign=top;spacingLeft=4;spacingRight=4;overflow=hidden;rotatable=0;points=[[0,0.5],[1,0.5]];portConstraint=eastwest;whiteSpace=wrap;html=1;" vertex="1" parent="wpC8kwuqwyjWKxIyAizM-18">
            <mxGeometry y="30" width="90" height="26" as="geometry" />
          </mxCell>
        </object>
        <object label="q(%VectAddrW-1%:0)" placeholders="1" id="wpC8kwuqwyjWKxIyAizM-21">
          <mxCell style="text;strokeColor=none;fillColor=none;align=right;verticalAlign=top;spacingLeft=4;spacingRight=4;overflow=hidden;rotatable=0;points=[[0,0.5],[1,0.5]];portConstraint=eastwest;whiteSpace=wrap;html=1;" vertex="1" parent="wpC8kwuqwyjWKxIyAizM-18">
            <mxGeometry y="56" width="90" height="26" as="geometry" />
          </mxCell>
        </object>
        <mxCell id="wpC8kwuqwyjWKxIyAizM-22" value="inc" style="text;strokeColor=none;fillColor=none;align=left;verticalAlign=top;spacingLeft=4;spacingRight=4;overflow=hidden;rotatable=0;points=[[0,0.5],[1,0.5]];portConstraint=eastwest;whiteSpace=wrap;html=1;" vertex="1" parent="wpC8kwuqwyjWKxIyAizM-18">
          <mxGeometry y="82" width="90" height="26" as="geometry" />
        </mxCell>
        <mxCell id="wpC8kwuqwyjWKxIyAizM-23" value="ld" style="text;strokeColor=none;fillColor=none;align=left;verticalAlign=top;spacingLeft=4;spacingRight=4;overflow=hidden;rotatable=0;points=[[0,0.5],[1,0.5]];portConstraint=eastwest;whiteSpace=wrap;html=1;" vertex="1" parent="wpC8kwuqwyjWKxIyAizM-18">
          <mxGeometry y="108" width="90" height="26" as="geometry" />
        </mxCell>
        <mxCell id="wpC8kwuqwyjWKxIyAizM-24" value="clk/clr" style="text;strokeColor=none;fillColor=none;align=left;verticalAlign=top;spacingLeft=4;spacingRight=4;overflow=hidden;rotatable=0;points=[[0,0.5],[1,0.5]];portConstraint=eastwest;whiteSpace=wrap;html=1;" vertex="1" parent="wpC8kwuqwyjWKxIyAizM-18">
          <mxGeometry y="134" width="90" height="26" as="geometry" />
        </mxCell>
        <mxCell id="wpC8kwuqwyjWKxIyAizM-30" value="" style="group" connectable="0" vertex="1" parent="1">
          <mxGeometry x="530" y="240" width="182" height="160" as="geometry" />
        </mxCell>
        <mxCell id="wpC8kwuqwyjWKxIyAizM-31" value="" style="group" connectable="0" vertex="1" parent="wpC8kwuqwyjWKxIyAizM-30">
          <mxGeometry width="182" height="160" as="geometry" />
        </mxCell>
        <mxCell id="Gl6bT_jSXnSH4bZ09Ikh-15" value="&lt;b&gt;CountRegister:&lt;/b&gt;&lt;br&gt;FaceAddrReg" style="swimlane;fontStyle=0;childLayout=stackLayout;horizontal=1;startSize=30;fillColor=none;horizontalStack=0;resizeParent=1;resizeParentMax=0;resizeLast=0;collapsible=1;marginBottom=0;whiteSpace=wrap;html=1;opacity=90;swimlaneFillColor=none;fillStyle=auto;direction=east;rounded=0;swimlaneLine=1;glass=0;shadow=0;dropTarget=1;" vertex="1" parent="wpC8kwuqwyjWKxIyAizM-31">
          <mxGeometry width="90" height="160" as="geometry" />
        </mxCell>
        <mxCell id="Gl6bT_jSXnSH4bZ09Ikh-23" style="edgeStyle=orthogonalEdgeStyle;rounded=0;orthogonalLoop=1;jettySize=auto;html=1;exitX=1;exitY=0.5;exitDx=0;exitDy=0;" edge="1" parent="Gl6bT_jSXnSH4bZ09Ikh-15" source="Gl6bT_jSXnSH4bZ09Ikh-18">
          <mxGeometry relative="1" as="geometry">
            <mxPoint x="230" y="70" as="targetPoint" />
          </mxGeometry>
        </mxCell>
        <mxCell id="wpC8kwuqwyjWKxIyAizM-36" style="edgeStyle=orthogonalEdgeStyle;rounded=0;orthogonalLoop=1;jettySize=auto;html=1;exitX=0;exitY=0.5;exitDx=0;exitDy=0;startArrow=classic;startFill=1;endArrow=none;endFill=0;" edge="1" parent="Gl6bT_jSXnSH4bZ09Ikh-15" source="wpC8kwuqwyjWKxIyAizM-8">
          <mxGeometry relative="1" as="geometry">
            <mxPoint x="-80" y="43" as="targetPoint" />
          </mxGeometry>
        </mxCell>
        <object label="d(%FaceAddrW-1%:0)" placeholders="1" id="wpC8kwuqwyjWKxIyAizM-8">
          <mxCell style="text;strokeColor=none;fillColor=none;align=left;verticalAlign=top;spacingLeft=4;spacingRight=4;overflow=hidden;rotatable=0;points=[[0,0.5],[1,0.5]];portConstraint=eastwest;whiteSpace=wrap;html=1;" vertex="1" parent="Gl6bT_jSXnSH4bZ09Ikh-15">
            <mxGeometry y="30" width="90" height="26" as="geometry" />
          </mxCell>
        </object>
        <object label="q(%FaceAddrW-1%:0)" placeholders="1" id="Gl6bT_jSXnSH4bZ09Ikh-18">
          <mxCell style="text;strokeColor=none;fillColor=none;align=right;verticalAlign=top;spacingLeft=4;spacingRight=4;overflow=hidden;rotatable=0;points=[[0,0.5],[1,0.5]];portConstraint=eastwest;whiteSpace=wrap;html=1;" vertex="1" parent="Gl6bT_jSXnSH4bZ09Ikh-15">
            <mxGeometry y="56" width="90" height="26" as="geometry" />
          </mxCell>
        </object>
        <mxCell id="Gl6bT_jSXnSH4bZ09Ikh-21" value="inc" style="text;strokeColor=none;fillColor=none;align=left;verticalAlign=top;spacingLeft=4;spacingRight=4;overflow=hidden;rotatable=0;points=[[0,0.5],[1,0.5]];portConstraint=eastwest;whiteSpace=wrap;html=1;" vertex="1" parent="Gl6bT_jSXnSH4bZ09Ikh-15">
          <mxGeometry y="82" width="90" height="26" as="geometry" />
        </mxCell>
        <mxCell id="wpC8kwuqwyjWKxIyAizM-7" value="ld" style="text;strokeColor=none;fillColor=none;align=left;verticalAlign=top;spacingLeft=4;spacingRight=4;overflow=hidden;rotatable=0;points=[[0,0.5],[1,0.5]];portConstraint=eastwest;whiteSpace=wrap;html=1;" vertex="1" parent="Gl6bT_jSXnSH4bZ09Ikh-15">
          <mxGeometry y="108" width="90" height="26" as="geometry" />
        </mxCell>
        <mxCell id="Gl6bT_jSXnSH4bZ09Ikh-22" value="clk/clr" style="text;strokeColor=none;fillColor=none;align=left;verticalAlign=top;spacingLeft=4;spacingRight=4;overflow=hidden;rotatable=0;points=[[0,0.5],[1,0.5]];portConstraint=eastwest;whiteSpace=wrap;html=1;" vertex="1" parent="Gl6bT_jSXnSH4bZ09Ikh-15">
          <mxGeometry y="134" width="90" height="26" as="geometry" />
        </mxCell>
        <object label="addrFace(%FaceAddrW-1%:0)" placeholders="1" id="Gl6bT_jSXnSH4bZ09Ikh-24">
          <mxCell style="text;html=1;strokeColor=none;fillColor=none;align=center;verticalAlign=middle;whiteSpace=wrap;rounded=0;" vertex="1" parent="wpC8kwuqwyjWKxIyAizM-31">
            <mxGeometry x="122" y="47" width="60" height="30" as="geometry" />
          </mxCell>
        </object>
        <object label="load(8:0)" placeholders="1" id="wpC8kwuqwyjWKxIyAizM-33">
          <mxCell style="text;html=1;strokeColor=none;fillColor=none;align=center;verticalAlign=middle;whiteSpace=wrap;rounded=0;" vertex="1" parent="1">
            <mxGeometry x="640" y="480" width="60" height="30" as="geometry" />
          </mxCell>
        </object>
        <mxCell id="wpC8kwuqwyjWKxIyAizM-34" style="edgeStyle=orthogonalEdgeStyle;rounded=0;orthogonalLoop=1;jettySize=auto;html=1;exitX=1;exitY=0.5;exitDx=0;exitDy=0;entryX=0;entryY=0.5;entryDx=0;entryDy=0;" edge="1" parent="1" source="wpC8kwuqwyjWKxIyAizM-1" target="wpC8kwuqwyjWKxIyAizM-22">
          <mxGeometry relative="1" as="geometry">
            <Array as="points">
              <mxPoint x="360" y="386" />
              <mxPoint x="360" y="151" />
            </Array>
          </mxGeometry>
        </mxCell>
        <mxCell id="wpC8kwuqwyjWKxIyAizM-35" style="edgeStyle=orthogonalEdgeStyle;rounded=0;orthogonalLoop=1;jettySize=auto;html=1;exitX=1;exitY=0.5;exitDx=0;exitDy=0;entryX=0;entryY=0.5;entryDx=0;entryDy=0;" edge="1" parent="1" source="wpC8kwuqwyjWKxIyAizM-2" target="wpC8kwuqwyjWKxIyAizM-23">
          <mxGeometry relative="1" as="geometry">
            <Array as="points">
              <mxPoint x="390" y="416" />
              <mxPoint x="390" y="177" />
            </Array>
          </mxGeometry>
        </mxCell>
        <object label="&quot;000000&quot;" placeholders="1" id="wpC8kwuqwyjWKxIyAizM-37">
          <mxCell style="text;html=1;strokeColor=none;fillColor=none;align=center;verticalAlign=middle;whiteSpace=wrap;rounded=0;" vertex="1" parent="1">
            <mxGeometry x="456" y="260" width="60" height="30" as="geometry" />
          </mxCell>
        </object>
        <mxCell id="wpC8kwuqwyjWKxIyAizM-54" style="edgeStyle=orthogonalEdgeStyle;rounded=0;orthogonalLoop=1;jettySize=auto;html=1;exitX=1;exitY=0.5;exitDx=0;exitDy=0;entryX=0;entryY=0.5;entryDx=0;entryDy=0;" edge="1" parent="1" source="wpC8kwuqwyjWKxIyAizM-41" target="wpC8kwuqwyjWKxIyAizM-53">
          <mxGeometry relative="1" as="geometry" />
        </mxCell>
        <object label="dataFace(7:0)" placeholders="1" id="wpC8kwuqwyjWKxIyAizM-41">
          <mxCell style="text;html=1;strokeColor=none;fillColor=none;align=center;verticalAlign=middle;whiteSpace=wrap;rounded=0;" vertex="1" parent="1">
            <mxGeometry x="60" y="76" width="60" height="30" as="geometry" />
          </mxCell>
        </object>
        <mxCell id="wpC8kwuqwyjWKxIyAizM-55" style="edgeStyle=orthogonalEdgeStyle;rounded=0;orthogonalLoop=1;jettySize=auto;html=1;exitX=1;exitY=0.5;exitDx=0;exitDy=0;entryX=0;entryY=0.5;entryDx=0;entryDy=0;" edge="1" parent="1" source="wpC8kwuqwyjWKxIyAizM-53" target="wpC8kwuqwyjWKxIyAizM-20">
          <mxGeometry relative="1" as="geometry" />
        </mxCell>
        <mxCell id="wpC8kwuqwyjWKxIyAizM-53" value="&lt;b&gt;&lt;font style=&quot;font-size: 16px;&quot;&gt;(x-1)*3&lt;/font&gt;&lt;/b&gt;" style="rounded=0;whiteSpace=wrap;html=1;" vertex="1" parent="1">
          <mxGeometry x="272" y="61" width="60" height="60" as="geometry" />
        </mxCell>
        <object label="dataFacem3(15:0)" placeholders="1" id="wpC8kwuqwyjWKxIyAizM-57">
          <mxCell style="text;html=1;strokeColor=none;fillColor=none;align=center;verticalAlign=middle;whiteSpace=wrap;rounded=0;" vertex="1" parent="1">
            <mxGeometry x="352" y="70" width="60" height="30" as="geometry" />
          </mxCell>
        </object>
        <object label="dataFacem3(4:0)" placeholders="1" id="wpC8kwuqwyjWKxIyAizM-58">
          <mxCell style="text;html=1;strokeColor=none;fillColor=none;align=center;verticalAlign=middle;whiteSpace=wrap;rounded=0;" vertex="1" parent="1">
            <mxGeometry x="450" y="91" width="60" height="30" as="geometry" />
          </mxCell>
        </object>
      </root>
    </mxGraphModel>
  </diagram>
</mxfile>
